<svg width="43" height="43" viewBox="0 0 43 43" fill="none" xmlns="http://www.w3.org/2000/svg">
<path d="M34.0417 5.375H26.5525C25.8 3.29667 23.8292 1.79167 21.5 1.79167C19.1708 1.79167 17.2 3.29667 16.4475 5.375H8.95833C6.9875 5.375 5.375 6.9875 5.375 8.95833V34.0417C5.375 36.0125 6.9875 37.625 8.95833 37.625H34.0417C36.0125 37.625 37.625 36.0125 37.625 34.0417V8.95833C37.625 6.9875 36.0125 5.375 34.0417 5.375ZM21.5 5.375C22.4854 5.375 23.2917 6.18125 23.2917 7.16667C23.2917 8.15208 22.4854 8.95833 21.5 8.95833C20.5146 8.95833 19.7083 8.15208 19.7083 7.16667C19.7083 6.18125 20.5146 5.375 21.5 5.375ZM17.9167 30.4583L10.75 23.2917L13.2762 20.7654L17.9167 25.3879L29.7237 13.5808L32.25 16.125L17.9167 30.4583Z" fill="white"/>
</svg>
