<svg width="43" height="43" viewBox="0 0 43 43" fill="none" xmlns="http://www.w3.org/2000/svg">
<path d="M21.1417 19.5292C17.0746 18.4721 15.7667 17.3792 15.7667 15.6771C15.7667 13.7242 17.5763 12.3625 20.6042 12.3625C23.7934 12.3625 24.9759 13.8854 25.0834 16.125H29.0429C28.9175 13.0433 27.0363 10.2125 23.2917 9.29875V5.375H17.9167V9.245C14.4409 9.9975 11.6459 12.255 11.6459 15.7129C11.6459 19.8517 15.0679 21.9121 20.0667 23.1125C24.5459 24.1875 25.4417 25.7642 25.4417 27.4304C25.4417 28.6667 24.5638 30.6375 20.6042 30.6375C16.9134 30.6375 15.4621 28.9892 15.265 26.875H11.3234C11.5384 30.7987 14.4767 33.0025 17.9167 33.7371V37.625H23.2917V33.7729C26.7854 33.11 29.5625 31.0854 29.5625 27.4125C29.5625 22.3242 25.2088 20.5862 21.1417 19.5292Z" fill="white"/>
</svg>
