<svg width="43" height="43" viewBox="0 0 43 43" fill="none" xmlns="http://www.w3.org/2000/svg">
<path d="M34.2925 23.1842C34.3642 22.6467 34.4 22.0912 34.4 21.5C34.4 20.9267 34.3642 20.3533 34.2746 19.8158L37.9117 16.985C38.2341 16.7342 38.3237 16.2504 38.1267 15.8921L34.6867 9.94374C34.4717 9.54957 34.0237 9.42415 33.6296 9.54957L29.3475 11.2696C28.4517 10.5887 27.5021 10.0154 26.445 9.5854L25.8 5.03457C25.7283 4.60457 25.37 4.29999 24.94 4.29999H18.06C17.63 4.29999 17.2896 4.60457 17.2179 5.03457L16.5729 9.5854C15.5158 10.0154 14.5483 10.6067 13.6704 11.2696L9.38832 9.54957C8.99416 9.40624 8.54624 9.54957 8.33124 9.94374L4.90916 15.8921C4.69416 16.2683 4.76583 16.7342 5.12416 16.985L8.76124 19.8158C8.67166 20.3533 8.59999 20.9446 8.59999 21.5C8.59999 22.0554 8.63583 22.6467 8.72541 23.1842L5.08833 26.015C4.76583 26.2658 4.67624 26.7496 4.87333 27.1079L8.31333 33.0562C8.52833 33.4504 8.97624 33.5758 9.37041 33.4504L13.6525 31.7304C14.5483 32.4112 15.4979 32.9846 16.555 33.4146L17.2 37.9654C17.2896 38.3954 17.63 38.7 18.06 38.7H24.94C25.37 38.7 25.7283 38.3954 25.7821 37.9654L26.4271 33.4146C27.4842 32.9846 28.4517 32.4112 29.3296 31.7304L33.6117 33.4504C34.0058 33.5937 34.4537 33.4504 34.6687 33.0562L38.1087 27.1079C38.3237 26.7137 38.2341 26.2658 37.8937 26.015L34.2925 23.1842ZM21.5 27.95C17.9525 27.95 15.05 25.0475 15.05 21.5C15.05 17.9525 17.9525 15.05 21.5 15.05C25.0475 15.05 27.95 17.9525 27.95 21.5C27.95 25.0475 25.0475 27.95 21.5 27.95Z" fill="white"/>
</svg>
