<svg width="80" height="80" viewBox="0 0 80 80" fill="none" xmlns="http://www.w3.org/2000/svg">
<path d="M10.0333 44.2666C9.56667 35.6999 15.5667 28.4999 23.6 26.9999L20.9667 29.5999C19.6667 30.8999 19.6667 32.9999 20.9667 34.2999C22.2667 35.5999 24.3667 35.5999 25.6667 34.2999L34.3 25.6666C35.6 24.3666 35.6 22.2666 34.3 20.9666L25.7 12.3333C24.4 11.0333 22.3 11.0333 21 12.3333C19.7 13.6333 19.7 15.7333 21 17.0333L23.9333 19.9666V20.1666C11.8 21.5999 2.5 32.3333 3.43334 45.0666C4.3 57.3999 15.1667 66.6666 27.5333 66.6666H33.3333C35.1667 66.6666 36.6667 65.1666 36.6667 63.3333C36.6667 61.4999 35.1667 59.9999 33.3333 59.9999H27.4C18.4 59.9999 10.5 53.1999 10.0333 44.2666Z" fill="#E9EE00"/>
<path d="M43.3333 49.9999V59.9999C43.3333 63.6666 46.3333 66.6666 50 66.6666H66.6666C70.3333 66.6666 73.3333 63.6666 73.3333 59.9999V49.9999C73.3333 46.3333 70.3333 43.3333 66.6666 43.3333H50C46.3333 43.3333 43.3333 46.3333 43.3333 49.9999ZM66.6666 59.9999H50V49.9999H66.6666V59.9999Z" fill="#E9EE00"/>
<path d="M66.6666 13.3333H50C46.3333 13.3333 43.3333 16.3333 43.3333 19.9999V29.9999C43.3333 33.6666 46.3333 36.6666 50 36.6666H66.6666C70.3333 36.6666 73.3333 33.6666 73.3333 29.9999V19.9999C73.3333 16.3333 70.3333 13.3333 66.6666 13.3333Z" fill="#E9EE00"/>
</svg>
