<svg width="66" height="66" viewBox="0 0 66 66" fill="none" xmlns="http://www.w3.org/2000/svg">
<path d="M52.25 38.5V16.5C52.25 13.475 49.775 11 46.75 11H8.25C5.225 11 2.75 13.475 2.75 16.5V38.5C2.75 41.525 5.225 44 8.25 44H46.75C49.775 44 52.25 41.525 52.25 38.5ZM27.5 35.75C22.935 35.75 19.25 32.065 19.25 27.5C19.25 22.935 22.935 19.25 27.5 19.25C32.065 19.25 35.75 22.935 35.75 27.5C35.75 32.065 32.065 35.75 27.5 35.75ZM63.25 19.25V49.5C63.25 52.525 60.775 55 57.75 55H11V49.5H57.75V19.25H63.25Z" fill="#00B312"/>
</svg>
