<svg width="80" height="80" viewBox="0 0 80 80" fill="none" xmlns="http://www.w3.org/2000/svg">
<path d="M56.1667 22.8333L60.9667 27.6333L44.7 43.9L33.7334 32.9333C32.4334 31.6333 30.3334 31.6333 29.0334 32.9333L9.03335 52.9667C7.73335 54.2667 7.73335 56.3667 9.03335 57.6667C10.3333 58.9667 12.4333 58.9667 13.7333 57.6667L31.3667 40L42.3334 50.9667C43.6334 52.2667 45.7334 52.2667 47.0334 50.9667L65.6667 32.3667L70.4667 37.1667C71.5 38.2 73.3 37.4667 73.3 36V21.6667C73.3334 20.7333 72.6 20 71.6667 20H57.3667C55.8667 20 55.1334 21.8 56.1667 22.8333Z" fill="#00B312"/>
</svg>
