<svg width="80" height="80" viewBox="0 0 80 80" fill="none" xmlns="http://www.w3.org/2000/svg">
<path d="M56.1667 57.1667L60.9667 52.3667L44.7 36.1L33.7334 47.0667C32.4334 48.3667 30.3334 48.3667 29.0334 47.0667L9.03335 27.0333C7.73335 25.7333 7.73335 23.6333 9.03335 22.3333C10.3333 21.0333 12.4333 21.0333 13.7333 22.3333L31.3667 40L42.3334 29.0333C43.6334 27.7333 45.7334 27.7333 47.0334 29.0333L65.6667 47.6333L70.4667 42.8333C71.5 41.8 73.3 42.5333 73.3 44V58.3333C73.3334 59.2667 72.6 60 71.6667 60H57.3667C55.8667 60 55.1334 58.2 56.1667 57.1667V57.1667Z" fill="#FF0000"/>
</svg>
